# Blender v2.69 (sub 0) OBJ File: 'groundBlock.blend'
# www.blender.org
mtllib groundBlock.mtl
# o groundBlock_Cube
v 0.237625 -0.449370 -0.200944
v 0.237625 -0.449370 0.399056
v -0.362375 -0.449370 0.399056
v -0.362375 -0.449370 -0.200944
v 0.237625 0.150630 -0.200944
v 0.237625 0.150630 0.399056
v -0.362375 0.150630 0.399056
v -0.362375 0.150630 -0.200944
vt 1.000000 0.500000
vt 1.000000 0.000000
vt 0.500000 0.000000
vt 0.500000 0.500000
vt 0.500000 1.000000
vt 0.000000 1.000000
vt -0.000000 0.500000
vt 0.000000 0.000000
vn 0.000000 -1.000000 -0.000000
vn 0.000000 1.000000 -0.000000
vn 1.000000 0.000000 0.000000
vn -0.000000 -0.000000 1.000000
vn -1.000000 -0.000000 -0.000000
vn 0.000000 0.000000 -1.000000
usemtl grassMat
s off
f 1/1/1 2/2/1 3/3/1 4/4/1
f 5/5/2 8/6/2 7/7/2 6/4/2
f 1/3/3 5/4/3 6/7/3 2/8/3
f 2/3/4 6/4/4 7/7/4 3/8/4
f 3/8/5 7/7/5 8/4/5 4/3/5
f 5/4/6 1/3/6 4/8/6 8/7/6
